<svg width="219.976562" height="253.357422" viewBox="0 0 219.977 253.357" fill="none" xmlns="http://www.w3.org/2000/svg" xmlns:xlink="http://www.w3.org/1999/xlink">
	<desc>
			Created with Pixso.
	</desc>
	<defs/>
	<ellipse id="Ellipse 286" rx="35.361134" ry="37.408360" transform="matrix(0.837718 0.546102 -0.546102 0.837718 183.992 67.1094)" fill="#FFFFFF" fill-opacity="1.000000"/>
	<ellipse id="Ellipse 287" rx="35.361134" ry="37.408360" transform="matrix(0.837718 0.546102 -0.546102 0.837718 89.4297 216.543)" fill="#FFFFFF" fill-opacity="1.000000"/>
	<ellipse id="Ellipse 288" rx="35.361134" ry="37.408360" transform="matrix(0.837718 0.546102 -0.546102 0.837718 137.469 36.8164)" fill="#FFFFFF" fill-opacity="1.000000"/>
	<ellipse id="Ellipse 289" rx="35.361134" ry="37.408360" transform="matrix(0.837718 0.546102 -0.546102 0.837718 35.9844 181.68)" fill="#FFFFFF" fill-opacity="1.000000"/>
	<path id="Ellipse 290" d="M144.13 107.78C132.85 125.09 67.09 222.19 50.73 211.52C34.37 200.86 98.85 102.94 110.14 85.63C121.42 68.32 143.89 38.98 160.25 49.65C176.61 60.32 155.41 90.48 144.13 107.78Z" fill="#FFFFFF" fill-opacity="1.000000" fill-rule="nonzero"/>
</svg>
