<svg width="728.000000" height="794.000000" viewBox="0 0 728 794" fill="none" xmlns="http://www.w3.org/2000/svg" xmlns:xlink="http://www.w3.org/1999/xlink">
	<desc>
			Created with Pixso.
	</desc>
	<defs/>
	<path id="Rectangle 166" d="M150 0L578 0C660.84 0 728 67.15 728 150L728 644C728 726.84 660.84 794 578 794L150 794C67.15 794 0 726.84 0 644L0 150C0 67.15 67.15 0 150 0Z" fill="#FF9A56" fill-opacity="1.000000" fill-rule="nonzero"/>
	<path id="Vector 83" d="M70.94 485.38C92.58 466.44 154.83 466.41 195.41 469.66C205.46 470.46 214.61 463.53 216.14 453.56L265.63 130.23C271.99 88.69 320.16 57.49 332.16 97.76C340.58 126.02 344.46 234.91 345.69 302.99C345.91 315.28 356.83 323.69 368.67 320.35C386.65 315.27 410.51 309.5 435.03 312.46C468.17 316.46 512.18 326.39 512.18 338.28L518.07 284.06L531.78 127.77C535.7 83.07 565.37 15.41 601.47 42.05C620.65 56.21 638.53 151.42 632.96 209.17L601.47 592.44C601.47 637.13 550.32 692.65 512.18 711.69C474.03 730.72 351.75 732.69 289.75 727.57C254.1 722.25 171.44 711.8 114.57 687.89C57.71 663.99 43.3 614.3 43.21 592.44C41.95 565.94 45.75 507.43 70.94 485.38Z" fill="#27AFDC" fill-opacity="1.000000" fill-rule="nonzero"/>
	<path id="Vector 83" d="M70.94 485.38C45.75 507.43 41.95 565.94 43.21 592.44C43.3 614.3 57.71 663.99 114.57 687.89C171.44 711.8 254.1 722.25 289.75 727.57C351.75 732.69 474.03 730.72 512.18 711.69C550.32 692.65 601.47 637.13 601.47 592.44L632.96 209.17C638.53 151.42 620.65 56.21 601.47 42.05C565.36 15.41 535.7 83.07 531.78 127.77L518.07 284.06L512.18 338.28C512.18 326.39 468.17 316.46 435.03 312.46C410.51 309.5 386.66 315.27 368.67 320.35C356.83 323.69 345.91 315.25 345.69 302.95C344.46 234.87 340.58 126.02 332.16 97.76C320.16 57.49 271.99 88.69 265.63 130.23L216.34 452.26C214.7 462.95 204.86 470.38 194.08 469.55C153.48 466.41 92.35 466.65 70.94 485.38Z" stroke="#27AFDC" stroke-opacity="1.000000" stroke-width="13.000000"/>
	<path id="Ellipse 238" d="M230 546C210.92 563.31 194.85 588 151.5 588C108.14 588 73 569.19 73 546C73 522.8 108.14 504 151.5 504C194.85 504 216.79 530.89 230 546Z" fill="#EEF6E3" fill-opacity="1.000000" fill-rule="nonzero"/>
</svg>
