<svg width="142.382812" height="57.066406" viewBox="0 0 142.383 57.0664" fill="none" xmlns="http://www.w3.org/2000/svg" xmlns:xlink="http://www.w3.org/1999/xlink">
	<desc>
			Created with Pixso.
	</desc>
	<defs/>
	<path id="Ellipse 75" d="M42.13 10.77C42.13 16.73 32.7 5.57 21.07 5.57C9.42 5.57 0 16.73 0 10.77C0 4.82 9.42 0 21.07 0C32.7 0 42.13 4.82 42.13 10.77Z" fill="#FFFFFF" fill-opacity="1.000000" fill-rule="nonzero"/>
	<path id="Ellipse 76" d="M142.38 10.77C142.38 16.73 132.95 5.57 121.32 5.57C109.68 5.57 100.25 16.73 100.25 10.77C100.25 4.82 109.68 0 121.32 0C132.95 0 142.38 4.82 142.38 10.77Z" fill="#FFFFFF" fill-opacity="1.000000" fill-rule="nonzero"/>
	<path id="Ellipse 77" d="M95.89 35.26C95.89 43.33 86.46 57.06 72.41 57.06C58.36 57.06 47.95 43.33 47.95 35.26C47.95 27.19 58.36 27.84 72.41 27.84C86.46 27.84 95.89 27.19 95.89 35.26Z" fill="#EF1A1D" fill-opacity="1.000000" fill-rule="nonzero"/>
</svg>
