<svg width="151.984375" height="215.535156" viewBox="0 0 151.984 215.535" fill="none" xmlns="http://www.w3.org/2000/svg" xmlns:xlink="http://www.w3.org/1999/xlink">
	<desc>
			Created with Pixso.
	</desc>
	<defs/>
	<path id="Polygon 11" d="M47.85 43.23C45.88 90.78 41.38 114.59 18.05 146.33L24.32 190C53.79 138.43 62.58 109.71 62.3 56.29L47.85 43.23Z" fill="#A371A8" fill-opacity="1.000000" fill-rule="nonzero"/>
	<path id="Polygon 11" d="M0 0L5.58 59.44C12.43 47.76 14.62 38.52 11.05 9.93L0 0Z" fill="#A371A8" fill-opacity="1.000000" fill-rule="nonzero"/>
	<path id="Polygon 11" d="M21.37 19.26C21.39 19.6 21.41 19.94 21.43 20.28C23.17 48.76 24.16 65.04 9.39 86L15.34 127.42C29.42 93.98 34.59 73.78 38.91 35.13L21.37 19.26Z" fill="#A371A8" fill-opacity="1.000000" fill-rule="nonzero"/>
	<path id="Polygon 11" d="M11.05 9.93L21.37 19.26L21.43 20.28C23.17 48.76 24.16 65.04 9.39 86L5.58 59.44C12.43 47.76 14.62 38.52 11.05 9.93ZM15.34 127.42L18.05 146.33C41.38 114.59 45.88 90.78 47.85 43.23L38.91 35.13C34.59 73.78 29.42 93.98 15.34 127.42ZM24.32 190C53.79 138.43 62.58 109.71 62.3 56.29L73.43 66.37C72.77 119.15 64.28 152.41 41.74 215.07C33.63 217.48 28.56 209.59 28.56 209.59L24.32 190ZM62.4 208.45C68.17 206.47 74.31 204.24 80.5 201.79C98.82 147.89 103 121.8 96.35 87.1L82.25 74.34C85.33 127.94 81.06 157.32 62.4 208.45ZM99.44 193.57C111 150.65 113 128.67 104.95 94.88L118.36 107.02C131.17 134.69 133.78 150.65 123.2 180.53C116.54 184.61 109.53 188.59 102.48 192.09C101.48 192.59 100.46 193.09 99.44 193.57ZM141.6 168.53L141.6 168.53C155.01 159.26 155.35 140.48 143.07 129.37L125.24 113.24C135.6 125.13 146.62 162.25 141.6 168.53Z" fill="#5DDB37" fill-opacity="1.000000" fill-rule="evenodd"/>
	<path id="Polygon 11" d="M73.43 66.37C72.77 119.15 64.28 152.41 41.74 215.07C47.44 213.37 54.59 211.14 62.4 208.45C81.06 157.32 85.33 127.94 82.25 74.34L73.43 66.37Z" fill="#A371A8" fill-opacity="1.000000" fill-rule="nonzero"/>
	<path id="Polygon 11" d="M96.35 87.1C103 121.8 98.82 147.89 80.5 201.79C86.87 199.27 93.3 196.52 99.44 193.57C111 150.65 113 128.67 104.95 94.88L96.35 87.1Z" fill="#A371A8" fill-opacity="1.000000" fill-rule="nonzero"/>
	<path id="Polygon 11" d="M118.36 107.02C131.17 134.69 133.78 150.65 123.2 180.53C129.78 176.51 136.03 172.38 141.6 168.53C146.62 162.25 135.6 125.13 125.24 113.24L118.36 107.02Z" fill="#A371A8" fill-opacity="1.000000" fill-rule="nonzero"/>
</svg>
