<svg width="1013.171875" height="973.310547" viewBox="0 0 1013.17 973.311" fill="none" xmlns="http://www.w3.org/2000/svg" xmlns:xlink="http://www.w3.org/1999/xlink">
	<desc>
			Created with Pixso.
	</desc>
	<defs/>
	<path id="Ellipse 317" d="M795.87 61.18C795.33 38.86 810.68 35.7 838.97 37.52C862.97 25.99 877.28 21.76 886.93 32.66C888.68 35.4 903.32 48.38 879.99 78.96C868.46 99.47 873.74 107.21 854.14 111.24C844.26 113.28 831 100.06 822.03 90.88C811.72 83.69 798.98 76.29 795.87 61.18Z" fill="#FDCF55" fill-opacity="1.000000" fill-rule="nonzero"/>
	<path id="Ellipse 318" d="M822.25 138.31C823.48 125.33 831.14 115.43 839.37 116.21C847.6 116.99 857.54 127.27 856.32 140.25C855.09 153.23 849.62 166.02 838 164.92C829.78 164.14 821.03 151.29 822.25 138.31Z" fill="#FDCF55" fill-opacity="1.000000" fill-rule="nonzero"/>
	<path id="Ellipse 321" d="M866.2 136.89C861.57 124.7 864.07 112.44 871.8 109.51C879.52 106.57 892.99 111.4 897.61 123.59C902.25 135.78 902.99 149.66 892.08 153.81C884.35 156.74 870.82 149.08 866.2 136.89Z" fill="#FDCF55" fill-opacity="1.000000" fill-rule="nonzero"/>
	<path id="Ellipse 319" d="M785.98 108.61C788.93 97.69 796.93 90.35 803.85 92.22C810.76 94.08 817.77 104.32 814.82 115.24C811.88 126.16 805.34 136.3 795.57 133.66C788.64 131.79 783.03 119.53 785.98 108.61Z" fill="#FDCF55" fill-opacity="1.000000" fill-rule="nonzero"/>
	<path id="Ellipse 320" d="M895.2 96.94C890.03 86.87 891.01 76.07 897.39 72.79C903.76 69.52 915.83 72.38 921 82.44C926.17 92.5 928.15 104.4 919.14 109.02C912.77 112.3 900.37 107 895.2 96.94Z" fill="#FDCF55" fill-opacity="1.000000" fill-rule="nonzero"/>
	<path id="Ellipse 317" d="M848.07 264.4C847.02 236.07 866.44 231.8 902.4 233.62C932.68 218.57 950.78 212.95 963.2 226.63C965.49 230.08 984.28 246.31 955.18 285.53C940.89 311.77 947.74 321.51 922.92 326.97C910.41 329.72 893.35 313.17 881.8 301.67C868.59 292.72 852.28 283.53 848.07 264.4Z" fill="#FDCF55" fill-opacity="1.000000" fill-rule="nonzero"/>
	<path id="Ellipse 318" d="M882.9 361.87C884.24 345.37 893.8 332.68 904.26 333.53C914.72 334.37 927.53 347.26 926.18 363.76C924.85 380.27 918.13 396.59 903.35 395.39C892.89 394.55 881.57 378.37 882.9 361.87Z" fill="#FDCF55" fill-opacity="1.000000" fill-rule="nonzero"/>
	<path id="Ellipse 321" d="M938.67 359.33C932.58 343.93 935.55 328.32 945.31 324.46C955.07 320.6 972.25 326.5 978.33 341.9C984.43 357.3 985.6 374.92 971.82 380.37C962.07 384.23 944.75 374.72 938.67 359.33Z" fill="#FDCF55" fill-opacity="1.000000" fill-rule="nonzero"/>
	<path id="Ellipse 319" d="M836.34 324.78C839.89 310.87 849.92 301.42 858.74 303.67C867.56 305.92 876.63 318.8 873.07 332.72C869.52 346.63 861.39 359.61 848.93 356.43C840.12 354.18 832.78 338.7 836.34 324.78Z" fill="#FDCF55" fill-opacity="1.000000" fill-rule="nonzero"/>
	<path id="Ellipse 320" d="M974.82 308.1C968.08 295.41 969.14 281.67 977.18 277.4C985.22 273.14 1000.6 276.57 1007.34 289.25C1014.07 301.94 1016.78 317.01 1005.43 323.03C997.39 327.3 981.55 320.78 974.82 308.1Z" fill="#FDCF55" fill-opacity="1.000000" fill-rule="nonzero"/>
	<path id="Ellipse 317" d="M836.09 542.89C836.85 515.73 856.58 512.56 892.46 515.99C923.75 503.02 942.23 498.5 953.78 512.17C955.85 515.57 973.62 531.98 941.96 568.12C925.96 592.55 932.18 602.18 906.98 606.23C894.28 608.28 878.27 591.65 867.44 580.1C854.79 570.93 839.07 561.38 836.09 542.89Z" fill="#FDCF55" fill-opacity="1.000000" fill-rule="nonzero"/>
	<path id="Ellipse 318" d="M864.66 637.75C867.07 622.03 877.46 610.34 887.87 611.64C898.28 612.94 910.28 625.86 907.87 641.59C905.46 657.3 897.68 672.6 882.97 670.77C872.56 669.46 862.25 653.47 864.66 637.75Z" fill="#FDCF55" fill-opacity="1.000000" fill-rule="nonzero"/>
	<path id="Ellipse 321" d="M920.65 637.93C915.55 622.91 919.53 608.12 929.56 604.89C939.57 601.66 956.39 608.11 961.49 623.12C966.59 638.14 966.63 655.04 952.48 659.6C942.46 662.84 925.75 652.94 920.65 637.93Z" fill="#FDCF55" fill-opacity="1.000000" fill-rule="nonzero"/>
	<path id="Ellipse 319" d="M820.44 600.09C824.9 586.95 835.55 578.37 844.23 580.94C852.91 583.51 861.16 596.26 856.71 609.4C852.25 622.54 843.27 634.57 831.01 630.94C822.32 628.37 815.99 613.23 820.44 600.09Z" fill="#FDCF55" fill-opacity="1.000000" fill-rule="nonzero"/>
	<path id="Ellipse 320" d="M960.15 590.62C954.23 578.18 956.18 565.09 964.5 561.38C972.82 557.68 988 561.68 993.92 574.13C999.84 586.57 1001.59 601.12 989.83 606.35C981.51 610.05 966.07 603.07 960.15 590.62Z" fill="#FDCF55" fill-opacity="1.000000" fill-rule="nonzero"/>
	<path id="Ellipse 317" d="M144.94 21.62C151.09 -4.63 169.97 -3.66 202.48 7.06C234.03 0.87 252.03 0.28 259.98 15.95C261.21 19.69 274.36 39.29 237.82 67.93C218.11 88.39 221.94 99.04 197.82 97.8C185.65 97.17 174.18 77.71 166.48 64.26C156.62 52.73 143.98 40.21 144.94 21.62Z" fill="#FDCF55" fill-opacity="1.000000" fill-rule="nonzero"/>
	<path id="Ellipse 318" d="M152.35 119.74C157.73 104.94 169.69 95.72 179.06 99.12C188.43 102.53 196.93 117.57 191.56 132.36C186.18 147.15 175.91 160.42 162.67 155.61C153.29 152.21 146.97 134.53 152.35 119.74Z" fill="#FDCF55" fill-opacity="1.000000" fill-rule="nonzero"/>
	<path id="Ellipse 321" d="M204.11 131.42C202.4 115.78 209.06 102.21 218.97 101.14C228.89 100.05 243.15 109.78 244.85 125.43C246.57 141.08 243.21 157.53 229.21 159.05C219.29 160.14 205.82 147.07 204.11 131.42Z" fill="#FDCF55" fill-opacity="1.000000" fill-rule="nonzero"/>
	<path id="Ellipse 319" d="M118.99 74.02C125.75 62.16 137.32 56.01 144.84 60.3C152.35 64.58 157.43 78.67 150.67 90.53C143.92 102.39 133.2 112.25 122.58 106.2C115.06 101.92 112.23 85.89 118.99 74.02Z" fill="#FDCF55" fill-opacity="1.000000" fill-rule="nonzero"/>
	<path id="Ellipse 320" d="M250.14 93.55C247.15 80.23 251.58 67.9 260.02 66.01C268.46 64.12 281.7 71.13 284.68 84.45C287.66 97.78 286.36 112.28 274.44 114.94C266 116.84 253.11 106.87 250.14 93.55Z" fill="#FDCF55" fill-opacity="1.000000" fill-rule="nonzero"/>
	<path id="Ellipse 317" d="M141.96 290.19C142.35 269.69 156.54 267.41 182.43 270.2C204.89 260.59 218.19 257.28 226.6 267.66C228.1 270.25 241 282.73 218.39 309.84C207 328.19 211.53 335.51 193.39 338.42C184.25 339.89 172.63 327.25 164.76 318.47C155.59 311.47 144.2 304.17 141.96 290.19Z" fill="#FDCF55" fill-opacity="1.000000" fill-rule="nonzero"/>
	<path id="Ellipse 318" d="M163.08 361.98C164.72 350.12 172.14 341.35 179.66 342.39C187.18 343.44 195.89 353.26 194.24 365.12C192.6 376.97 187.07 388.48 176.46 387.01C168.95 385.96 161.43 373.83 163.08 361.98Z" fill="#FDCF55" fill-opacity="1.000000" fill-rule="nonzero"/>
	<path id="Ellipse 321" d="M203.43 362.43C199.68 351.06 202.46 339.92 209.67 337.53C216.86 335.15 229.02 340.12 232.78 351.48C236.54 362.84 236.67 375.61 226.5 378.97C219.3 381.35 207.2 373.79 203.43 362.43Z" fill="#FDCF55" fill-opacity="1.000000" fill-rule="nonzero"/>
	<path id="Ellipse 319" d="M131 333.29C134.14 323.39 141.76 316.98 148.03 318.97C154.31 320.96 160.32 330.62 157.18 340.52C154.05 350.42 147.64 359.45 138.79 356.64C132.52 354.66 127.86 343.19 131 333.29Z" fill="#FDCF55" fill-opacity="1.000000" fill-rule="nonzero"/>
	<path id="Ellipse 320" d="M231.63 326.94C227.29 317.51 228.62 307.63 234.6 304.88C240.57 302.14 251.53 305.24 255.87 314.68C260.21 324.1 261.55 335.1 253.1 338.98C247.13 341.73 235.96 336.37 231.63 326.94Z" fill="#FDCF55" fill-opacity="1.000000" fill-rule="nonzero"/>
	<path id="Ellipse 317" d="M11.96 506.19C12.35 485.69 26.54 483.41 52.42 486.2C74.89 476.59 88.19 473.28 96.6 483.66C98.1 486.25 111 498.73 88.39 525.84C77 544.19 81.53 551.51 63.39 554.42C54.25 555.89 42.63 543.25 34.76 534.47C25.59 527.47 14.2 520.17 11.96 506.19Z" fill="#FDCF55" fill-opacity="1.000000" fill-rule="nonzero"/>
	<path id="Ellipse 318" d="M33.08 577.98C34.72 566.12 42.14 557.35 49.66 558.39C57.17 559.44 65.89 569.26 64.24 581.12C62.6 592.97 57.07 604.48 46.46 603.01C38.95 601.96 31.43 589.83 33.08 577.98Z" fill="#FDCF55" fill-opacity="1.000000" fill-rule="nonzero"/>
	<path id="Ellipse 321" d="M73.43 578.43C69.67 567.06 72.46 555.92 79.67 553.53C86.86 551.15 99.02 556.12 102.78 567.48C106.54 578.84 106.67 591.61 96.5 594.97C89.3 597.35 77.2 589.79 73.43 578.43Z" fill="#FDCF55" fill-opacity="1.000000" fill-rule="nonzero"/>
	<path id="Ellipse 319" d="M1 549.29C4.14 539.39 11.76 532.98 18.03 534.97C24.31 536.96 30.32 546.62 27.18 556.52C24.05 566.42 17.64 575.45 8.79 572.64C2.52 570.66 -2.14 559.19 1 549.29Z" fill="#FDCF55" fill-opacity="1.000000" fill-rule="nonzero"/>
	<path id="Ellipse 320" d="M101.63 542.94C97.29 533.51 98.62 523.63 104.6 520.88C110.57 518.14 121.53 521.24 125.87 530.68C130.21 540.1 131.55 551.1 123.1 554.98C117.13 557.73 105.96 552.37 101.63 542.94Z" fill="#FDCF55" fill-opacity="1.000000" fill-rule="nonzero"/>
	<path id="Ellipse 317" d="M193.75 671.73C194.26 645.74 212.26 642.84 245.07 646.39C273.57 634.19 290.43 630 301.08 643.16C302.99 646.44 319.35 662.27 290.68 696.65C276.22 719.92 281.98 729.18 258.99 732.88C247.39 734.75 232.64 718.71 222.68 707.59C211.05 698.71 196.6 689.45 193.75 671.73Z" fill="#FDCF55" fill-opacity="1.000000" fill-rule="nonzero"/>
	<path id="Ellipse 318" d="M220.54 762.75C222.63 747.71 232.04 736.6 241.57 737.92C251.1 739.24 262.14 751.7 260.06 766.73C257.97 781.77 250.97 796.36 237.52 794.49C227.99 793.17 218.46 777.78 220.54 762.75Z" fill="#FDCF55" fill-opacity="1.000000" fill-rule="nonzero"/>
	<path id="Ellipse 321" d="M271.71 763.32C266.93 748.91 270.47 734.78 279.6 731.76C288.73 728.74 304.14 735.03 308.92 749.44C313.68 763.85 313.85 780.03 300.95 784.3C291.82 787.32 276.47 777.73 271.71 763.32Z" fill="#FDCF55" fill-opacity="1.000000" fill-rule="nonzero"/>
	<path id="Ellipse 319" d="M179.85 726.38C183.83 713.83 193.5 705.7 201.46 708.22C209.41 710.74 217.03 723 213.06 735.55C209.08 748.1 200.96 759.55 189.73 756C181.78 753.47 175.88 738.93 179.85 726.38Z" fill="#FDCF55" fill-opacity="1.000000" fill-rule="nonzero"/>
	<path id="Ellipse 320" d="M307.46 718.33C301.96 706.36 303.64 693.85 311.21 690.36C318.79 686.87 332.69 690.81 338.19 702.77C343.69 714.73 345.39 728.67 334.68 733.59C327.1 737.08 312.96 730.28 307.46 718.33Z" fill="#FDCF55" fill-opacity="1.000000" fill-rule="nonzero"/>
	<path id="Ellipse 317" d="M84.59 884.28C84.95 865.46 97.99 863.36 121.75 865.93C142.39 857.1 154.6 854.06 162.32 863.6C163.7 865.97 175.54 877.43 154.78 902.33C144.32 919.18 148.48 925.89 131.82 928.57C123.43 929.92 112.75 918.31 105.53 910.25C97.11 903.82 86.65 897.12 84.59 884.28Z" fill="#FDCF55" fill-opacity="1.000000" fill-rule="nonzero"/>
	<path id="Ellipse 318" d="M103.98 950.2C105.49 939.31 112.31 931.26 119.21 932.22C126.1 933.18 134.1 942.2 132.6 953.09C131.08 963.97 126.01 974.54 116.27 973.19C109.37 972.23 102.46 961.09 103.98 950.2Z" fill="#FDCF55" fill-opacity="1.000000" fill-rule="nonzero"/>
	<path id="Ellipse 321" d="M141.04 950.61C137.59 940.18 140.14 929.95 146.76 927.76C153.37 925.57 164.53 930.13 167.99 940.56C171.44 951 171.56 962.72 162.22 965.81C155.6 968 144.5 961.05 141.04 950.61Z" fill="#FDCF55" fill-opacity="1.000000" fill-rule="nonzero"/>
	<path id="Ellipse 319" d="M74.52 923.86C77.4 914.77 84.4 908.88 90.17 910.71C95.92 912.53 101.45 921.42 98.57 930.51C95.68 939.59 89.81 947.89 81.67 945.31C75.92 943.48 71.64 932.95 74.52 923.86Z" fill="#FDCF55" fill-opacity="1.000000" fill-rule="nonzero"/>
	<path id="Ellipse 320" d="M166.93 918.03C162.94 909.37 164.16 900.3 169.65 897.77C175.14 895.25 185.2 898.1 189.18 906.77C193.17 915.43 194.4 925.52 186.64 929.08C181.16 931.61 170.91 926.69 166.93 918.03Z" fill="#FDCF55" fill-opacity="1.000000" fill-rule="nonzero"/>
</svg>
