<svg width="332" height="652" viewBox="0 0 332 652" fill="none" xmlns="http://www.w3.org/2000/svg">
<path d="M31.9853 84.3223C22.4597 66.0838 33.8587 57.2328 57.992 47.2208C73.1439 27.9214 83.2584 18.6027 95.6636 23.6968C98.2343 25.246 115.612 30.0241 108.763 64.7956C107.574 86.4448 115.094 90.6957 100.53 102.004C93.188 107.705 76.8523 102.173 65.6961 98.2354C54.249 96.488 40.7042 95.5513 31.9853 84.3223Z" fill="#FDCF55"/>
<path d="M85.1818 137.351C80.9168 126.118 83.2294 114.821 90.3472 112.119C97.465 109.416 109.872 113.867 114.137 125.1C118.402 136.333 119.084 149.128 109.031 152.945C101.913 155.648 89.4469 148.584 85.1818 137.351Z" fill="#FDCF55"/>
<path d="M120.938 118.301C112.15 110.107 109.236 98.9499 114.428 93.3816C119.621 87.8133 132.718 86.3274 141.506 94.5217C150.293 102.716 156.556 113.895 149.222 121.759C144.03 127.327 129.725 126.495 120.938 118.301Z" fill="#FDCF55"/>
<path d="M43.1126 127.553C41.1054 117.327 44.7314 108.005 51.2115 106.734C57.6916 105.462 67.65 111.078 69.6572 121.305C71.6644 131.531 70.3798 142.57 61.2276 144.367C54.7475 145.638 45.1198 137.779 43.1126 127.553Z" fill="#FDCF55"/>
<path d="M128.665 73.4656C120.299 67.2503 116.711 57.9147 120.649 52.6139C124.587 47.3131 135.734 44.7683 144.099 50.9836C152.464 57.1989 158.941 66.2302 153.379 73.7168C149.44 79.0176 137.03 79.6809 128.665 73.4656Z" fill="#FDCF55"/>
<path d="M153.664 239.845C147.621 216.129 163.234 208.998 193.906 204.003C216.719 185.802 230.974 177.779 243.942 187.065C246.495 189.561 265.306 199.84 247.875 238.22C240.584 262.956 248.128 269.931 228.178 279.042C218.122 283.635 200.724 272.768 188.885 265.161C176.112 260.011 160.688 255.226 153.664 239.845Z" fill="#FDCF55"/>
<path d="M200.76 315.765C198.892 301.597 204.656 289.152 213.634 287.968C222.611 286.784 235.758 295.327 237.625 309.496C239.493 323.664 236.786 338.662 224.106 340.333C215.128 341.517 202.628 329.933 200.76 315.765Z" fill="#FDCF55"/>
<path d="M247.359 303.482C239.425 291.595 239.1 277.884 246.632 272.857C254.165 267.83 269.732 269.688 277.665 281.575C285.598 293.462 289.793 308.113 279.155 315.213C271.623 320.24 255.292 315.368 247.359 303.482Z" fill="#FDCF55"/>
<path d="M154.741 292.927C155.211 280.54 161.956 270.741 169.804 271.039C177.653 271.338 187.646 280.56 187.175 292.947C186.705 305.333 182.201 317.761 171.116 317.34C163.267 317.041 154.27 305.313 154.741 292.927Z" fill="#FDCF55"/>
<path d="M268.551 253.694C260.565 244.213 258.962 232.426 264.969 227.366C270.977 222.306 284.575 222.406 292.56 231.886C300.546 241.367 305.575 253.591 297.091 260.738C291.083 265.798 276.536 263.174 268.551 253.694Z" fill="#FDCF55"/>
<path d="M121.533 482.282C120.334 450.279 142.272 445.456 182.885 447.513C217.081 430.512 237.526 424.173 251.558 439.625C254.136 443.52 275.37 461.851 242.502 506.148C226.362 535.784 234.092 546.785 206.062 552.947C191.933 556.053 172.669 537.359 159.619 524.368C144.697 514.262 126.284 503.892 121.533 482.282Z" fill="#FDCF55"/>
<path d="M160.864 592.374C162.376 573.735 173.177 559.402 184.988 560.36C196.799 561.318 211.264 575.867 209.752 594.507C208.239 613.146 200.646 631.587 183.964 630.233C172.153 629.275 159.351 611.014 160.864 592.374Z" fill="#FDCF55"/>
<path d="M223.854 589.494C216.979 572.103 220.339 554.473 231.359 550.117C242.379 545.76 261.782 552.425 268.657 569.816C275.533 587.207 276.864 607.105 261.3 613.258C250.28 617.615 230.729 606.885 223.854 589.494Z" fill="#FDCF55"/>
<path d="M108.282 550.485C112.295 534.769 123.622 524.09 133.58 526.634C143.539 529.177 153.783 543.727 149.769 559.443C145.756 575.159 136.572 589.817 122.507 586.225C112.549 583.682 104.269 566.201 108.282 550.485Z" fill="#FDCF55"/>
<path d="M264.678 531.637C257.074 517.31 258.269 501.789 267.347 496.97C276.426 492.152 293.794 496.024 301.398 510.351C309.003 524.678 312.071 541.702 299.248 548.507C290.17 553.326 272.283 545.964 264.678 531.637Z" fill="#FDCF55"/>
</svg>
