<svg width="225.531250" height="179.433594" viewBox="0 0 225.531 179.434" fill="none" xmlns="http://www.w3.org/2000/svg" xmlns:xlink="http://www.w3.org/1999/xlink">
	<desc>
			Created with Pixso.
	</desc>
	<defs/>
	<path id="Rectangle 178" d="M64.13 42.18L113.93 102.21L63.9 143.71C47.32 157.46 22.74 155.17 8.98 138.59L8.98 138.59C-4.77 122.02 -2.48 97.43 14.1 83.68L64.13 42.18Z" fill="#C67D7D" fill-opacity="1.000000" fill-rule="nonzero"/>
	<path id="Rectangle 178" d="M113.16 102.85L113.93 102.21L64.13 42.18L14.1 83.68C-2.48 97.43 -4.77 122.02 8.98 138.59C22.74 155.17 47.32 157.46 63.9 143.71L113.16 102.85ZM112.52 102.08L63.26 142.94Q57.21 147.97 50.25 150.11Q43.31 152.26 35.47 151.53Q27.64 150.8 21.21 147.41Q14.78 144.02 9.75 137.96Q4.73 131.9 2.58 124.95Q0.43 118 1.16 110.17Q1.89 102.33 5.28 95.9Q8.68 89.47 14.74 84.45L64 43.58L112.52 102.08Z" fill="#C67D7D" fill-opacity="1.000000" fill-rule="evenodd"/>
	<path id="Rectangle 179" d="M104.15 8.98C120.73 -4.77 145.32 -2.48 159.07 14.1L159.07 14.1C172.82 30.67 170.53 55.26 153.95 69.01L104.69 109.87L54.89 49.84L104.15 8.98Z" fill="#FFFFFF" fill-opacity="0" fill-rule="nonzero"/>
	<path id="Rectangle 179" d="M159.07 14.1C145.32 -2.48 120.73 -4.77 104.15 8.98L54.89 49.84L104.69 109.87L153.95 69.01C170.53 55.26 172.82 30.67 159.07 14.1ZM106 95.79L147.57 61.32Q152.19 57.48 154.78 52.58Q157.37 47.67 157.92 41.69Q158.48 35.71 156.85 30.41Q155.21 25.1 151.37 20.48Q147.53 15.86 142.63 13.27Q137.72 10.68 131.74 10.12Q125.76 9.57 120.46 11.2Q115.16 12.84 110.53 16.68L68.97 51.15L106 95.79Z" fill="#C67D7D" fill-opacity="1.000000" fill-rule="evenodd"/>
	<path id="Subtract" d="M152.055 171.621L152.055 171.621C130.531 161.074 122.344 133.625 133.773 110.309C145.195 86.9922 171.906 76.6406 193.43 87.1875L193.43 87.1875L152.055 171.621Z" clip-rule="evenodd" fill="#C67D7D" fill-opacity="1.000000" fill-rule="evenodd"/>
	<path id="Subtract" d="M158.547 174.801C181.414 186.006 209.211 176.188 220.641 152.871C232.062 129.559 222.789 101.574 199.922 90.3672L158.547 174.801Z" clip-rule="evenodd" fill="#C67D7D" fill-opacity="1.000000" fill-rule="evenodd"/>
</svg>
