<svg width="257" height="109" viewBox="0 0 257 109" fill="none" xmlns="http://www.w3.org/2000/svg">
<path d="M37.6287 54.1954C33.188 53.6412 30.9608 50.3224 30.9412 45.9984C30.9258 42.7933 30.9219 39.5875 30.9296 36.3809C30.9296 36.343 30.9485 36.3241 30.9862 36.3241H37.736C37.7669 36.3241 37.7966 36.3363 37.8184 36.358C37.8403 36.3798 37.8526 36.4093 37.8526 36.44C37.8518 39.1387 37.8503 41.8444 37.848 44.557C37.8457 45.9393 38.2149 47.3748 39.8306 47.5835C41.6112 47.812 42.2102 46.4866 42.3302 44.9258C42.4371 43.5374 42.4387 42.1482 42.3348 40.7583C42.1779 38.6548 41.1704 36.9711 39.9194 35.3465C38.3261 33.2779 36.7251 31.215 35.1164 29.1579C32.8811 26.2972 31.5147 23.2313 31.3497 19.574C31.1454 15.0389 31.037 9.57616 36.215 7.81013C37.0652 7.52024 37.9949 7.34901 39.0043 7.29644C40.7138 7.20676 42.1755 7.24696 43.3896 7.41703C47.5683 8.00378 49.0973 10.9166 49.1227 14.8731C49.1397 17.5053 49.1404 20.1383 49.125 22.7721C49.125 22.81 49.1062 22.8289 49.0685 22.8289L42.5252 22.8498C42.4943 22.8498 42.4647 22.8375 42.4428 22.8155C42.4209 22.7935 42.4087 22.7638 42.4087 22.7327C42.4094 20.6377 42.4113 18.5296 42.4144 16.4084C42.4167 15.1908 42.299 13.6938 40.7665 13.5106C38.9385 13.2926 38.4492 14.5171 38.4088 16.1115C38.3857 17.0029 38.4073 17.8938 38.4735 18.7843C38.6212 20.7591 39.5317 22.3361 40.6984 23.8714C42.4333 26.155 44.1751 28.4332 45.9238 30.7059C47.8452 33.2048 49.2751 35.7107 49.6513 38.9018C49.8832 40.8708 49.8752 43.0473 49.7471 45.1148C49.4574 49.7995 47.214 53.7444 42.1478 54.2279C40.5384 54.3817 39.032 54.3709 37.6287 54.1954Z" fill="white"/>
<path d="M28.8803 48.6126C28.918 50.328 28.9242 52.0136 28.8988 53.6695C28.8965 53.7785 28.8414 53.833 28.7337 53.833H22.0416C22.011 53.833 21.9816 53.8208 21.96 53.799C21.9383 53.7773 21.9262 53.7478 21.9262 53.7171V33.6854C21.9262 33.6547 21.914 33.6252 21.8924 33.6034C21.8707 33.5817 21.8414 33.5694 21.8108 33.5694H17.2813C17.2503 33.5694 17.2207 33.5817 17.1988 33.6034C17.177 33.6252 17.1647 33.6547 17.1647 33.6854L17.167 53.6881C17.167 53.7847 17.1189 53.833 17.0228 53.833L10.2844 53.8307C10.2367 53.8307 10.2129 53.8067 10.2129 53.7588V7.76892C10.2129 7.73026 10.2321 7.71094 10.2706 7.71094H17.122C17.1333 7.71094 17.1442 7.71546 17.1522 7.7235C17.1602 7.73155 17.1647 7.74246 17.1647 7.75384L17.1705 26.0786C17.1705 26.0915 17.173 26.1044 17.178 26.1163C17.183 26.1283 17.1903 26.1391 17.1995 26.1483C17.2088 26.1574 17.2197 26.1647 17.2317 26.1697C17.2438 26.1746 17.2567 26.1772 17.2697 26.1772H21.8108C21.8414 26.1772 21.8707 26.1649 21.8924 26.1432C21.914 26.1215 21.9262 26.092 21.9262 26.0612V7.78399C21.9262 7.73529 21.95 7.71094 21.9977 7.71094H28.8191C28.8427 7.71094 28.8653 7.72034 28.882 7.73709C28.8986 7.75383 28.908 7.77654 28.908 7.80022C28.908 21.3464 28.908 34.903 28.908 48.47C28.908 48.4901 28.9041 48.5086 28.8965 48.5256C28.8849 48.5535 28.8795 48.5825 28.8803 48.6126Z" fill="white"/>
<path d="M58.8324 26.4671L65.6607 26.4705C65.6776 26.4705 65.6937 26.4773 65.7056 26.4892C65.7175 26.5012 65.7242 26.5174 65.7242 26.5343L65.7207 33.4477C65.7207 33.4646 65.714 33.4808 65.7021 33.4928C65.6902 33.5047 65.6741 33.5115 65.6573 33.5115H58.8324C58.8156 33.5115 58.7994 33.5182 58.7875 33.5301C58.7756 33.5421 58.7689 33.5583 58.7689 33.5752L58.7678 46.7248C58.7678 46.7417 58.7745 46.758 58.7864 46.7699C58.7983 46.7819 58.8144 46.7886 58.8312 46.7886H67.9376C67.9544 46.7886 67.9706 46.7953 67.9825 46.8073C67.9944 46.8192 68.0011 46.8355 68.0011 46.8524V53.7692C68.0011 53.7862 67.9944 53.8024 67.9825 53.8143C67.9706 53.8263 67.9544 53.833 67.9376 53.833H51.8506C51.8337 53.833 51.8176 53.8263 51.8057 53.8143C51.7938 53.8024 51.7871 53.7862 51.7871 53.7692V7.77471C51.7871 7.7578 51.7938 7.74158 51.8057 7.72962C51.8176 7.71766 51.8337 7.71094 51.8506 7.71094H67.5914C67.6082 7.71094 67.6244 7.71766 67.6363 7.72962C67.6482 7.74158 67.6549 7.7578 67.6549 7.77471V14.3437C67.6549 14.3606 67.6482 14.3768 67.6363 14.3888C67.6244 14.4008 67.6082 14.4075 67.5914 14.4075H58.8324C58.8156 14.4075 58.7994 14.4142 58.7875 14.4262C58.7756 14.4381 58.7689 14.4543 58.7689 14.4713V26.4033C58.7689 26.4117 58.7706 26.4199 58.7738 26.4277C58.7769 26.4354 58.7816 26.4425 58.7875 26.4484C58.7934 26.4543 58.8004 26.459 58.8081 26.4622C58.8158 26.4654 58.8241 26.4671 58.8324 26.4671Z" fill="white"/>
<path d="M81.7513 45.2498L80.8443 53.7484C80.8417 53.7717 80.8306 53.7933 80.8131 53.8089C80.7957 53.8246 80.773 53.8332 80.7496 53.833H74.691C74.6776 53.8331 74.6643 53.8303 74.6519 53.8248C74.6396 53.8194 74.6286 53.8113 74.6197 53.8012C74.6107 53.7911 74.604 53.7792 74.6 53.7663C74.596 53.7534 74.5948 53.7398 74.5964 53.7263L80.1911 7.79443C80.1939 7.77127 80.2051 7.74997 80.2226 7.73457C80.24 7.71918 80.2625 7.71077 80.2857 7.71094H88.4019C88.4248 7.71101 88.4468 7.71939 88.464 7.73452C88.4812 7.74965 88.4923 7.77052 88.4954 7.79327L94.4548 53.7252C94.4566 53.7386 94.4555 53.7522 94.4516 53.7652C94.4478 53.7782 94.4412 53.7902 94.4323 53.8004C94.4235 53.8106 94.4126 53.8188 94.4003 53.8244C94.3881 53.83 94.3748 53.833 94.3613 53.833H87.8122C87.7888 53.8332 87.7662 53.8246 87.7487 53.8089C87.7313 53.7933 87.7202 53.7717 87.7176 53.7484L86.8105 45.2475C86.808 45.2242 86.7969 45.2026 86.7794 45.1869C86.7619 45.1713 86.7393 45.1627 86.7159 45.1629L81.846 45.1652C81.8226 45.1651 81.7999 45.1736 81.7825 45.1893C81.765 45.2049 81.7539 45.2265 81.7513 45.2498ZM82.453 38.1962C82.4525 38.2013 82.4531 38.2065 82.4547 38.2114C82.4564 38.2163 82.459 38.2208 82.4625 38.2247C82.466 38.2285 82.4702 38.2315 82.4749 38.2336C82.4796 38.2357 82.4847 38.2368 82.4899 38.2367L86.012 38.2391C86.0171 38.2391 86.0222 38.238 86.0269 38.2359C86.0317 38.2339 86.0359 38.2308 86.0394 38.227C86.0429 38.2232 86.0455 38.2187 86.0471 38.2137C86.0488 38.2088 86.0494 38.2036 86.0489 38.1985L84.2544 21.6293C84.2529 21.6207 84.2484 21.613 84.2417 21.6074C84.2351 21.6018 84.2267 21.5987 84.218 21.5987C84.2094 21.5987 84.201 21.6018 84.1943 21.6074C84.1877 21.613 84.1832 21.6207 84.1817 21.6293L82.453 38.1962Z" fill="white"/>
<path d="M102.607 33.266C102.559 33.2683 102.535 33.2939 102.535 33.3426V53.7024C102.535 53.7368 102.521 53.7698 102.497 53.7942C102.472 53.8186 102.44 53.8322 102.405 53.8322L95.6681 53.8346C95.6375 53.8346 95.6082 53.8222 95.5865 53.8003C95.5649 53.7783 95.5527 53.7485 95.5527 53.7174V7.82496C95.5527 7.79482 95.5647 7.76592 95.5859 7.74461C95.6071 7.7233 95.6358 7.71132 95.6658 7.71132C99.5187 7.71055 103.385 7.71094 107.266 7.71248C112.204 7.7148 113.879 10.6659 113.834 15.2068C113.807 17.926 113.837 20.6452 113.804 23.3644C113.775 25.6534 112.993 27.8137 110.887 28.8747C110.882 28.8773 110.878 28.8813 110.875 28.8861C110.872 28.8909 110.871 28.8965 110.871 28.902C110.871 28.9076 110.872 28.913 110.875 28.9176C110.878 28.9222 110.882 28.9258 110.887 28.9281C112.713 29.7591 113.677 31.1989 113.779 33.2475C113.801 33.6742 113.813 34.1028 113.815 34.5334C113.837 38.6306 113.845 42.7278 113.842 46.8249C113.839 49.0687 113.554 51.425 114.524 53.5342C114.538 53.5663 114.545 53.6017 114.542 53.6369C114.54 53.6722 114.529 53.7063 114.51 53.7361C114.491 53.7658 114.465 53.7904 114.434 53.8074C114.403 53.8244 114.368 53.8333 114.333 53.8334H107.723C107.672 53.8333 107.622 53.8184 107.579 53.7904C107.536 53.7624 107.502 53.7226 107.482 53.6757C107.137 52.8926 106.96 52.0488 106.95 51.1443C106.894 45.9819 106.876 40.8195 106.898 35.6571C106.904 34.1717 106.335 33.3959 104.855 33.2892C104.097 33.2351 103.348 33.2274 102.607 33.266ZM104.956 26.6066C106.781 26.3944 106.961 24.328 106.921 22.9099C106.863 20.8841 106.891 18.8548 106.892 16.8279C106.892 15.4295 106.605 14.133 104.993 14.0217C104.198 13.9661 103.412 13.9529 102.635 13.9823C102.608 13.9832 102.582 13.9946 102.564 14.0141C102.545 14.0335 102.535 14.0596 102.535 14.0867V26.5544C102.535 26.5716 102.538 26.5885 102.545 26.6043C102.552 26.62 102.561 26.6342 102.574 26.646C102.586 26.6577 102.601 26.6667 102.617 26.6725C102.633 26.6783 102.65 26.6808 102.667 26.6796C103.446 26.6263 104.21 26.6936 104.956 26.6066Z" fill="white"/>
<path d="M127.787 53.833H121.077C121.063 53.833 121.049 53.8302 121.036 53.8248C121.023 53.8194 121.011 53.8114 121.001 53.8014C120.991 53.7914 120.983 53.7795 120.978 53.7664C120.973 53.7534 120.97 53.7393 120.97 53.7252V14.5153C120.97 14.4867 120.959 14.4593 120.938 14.4391C120.918 14.4188 120.891 14.4075 120.863 14.4075H115.221C115.192 14.4075 115.165 14.3961 115.145 14.3759C115.125 14.3557 115.113 14.3282 115.113 14.2996V7.81878C115.113 7.80462 115.116 7.79059 115.121 7.77751C115.127 7.76443 115.135 7.75254 115.145 7.74252C115.155 7.73251 115.167 7.72457 115.18 7.71915C115.193 7.71373 115.207 7.71094 115.221 7.71094H133.643C133.657 7.71094 133.671 7.71373 133.684 7.71915C133.697 7.72457 133.709 7.73251 133.719 7.74252C133.729 7.75254 133.737 7.76443 133.743 7.77751C133.748 7.79059 133.751 7.80462 133.751 7.81878V14.2996C133.751 14.3282 133.739 14.3557 133.719 14.3759C133.699 14.3961 133.672 14.4075 133.643 14.4075H128.001C127.987 14.4075 127.973 14.4103 127.96 14.4157C127.947 14.4211 127.935 14.4291 127.925 14.4391C127.916 14.4491 127.908 14.461 127.902 14.4741C127.897 14.4871 127.894 14.5012 127.894 14.5153V53.7252C127.894 53.7538 127.883 53.7812 127.863 53.8014C127.842 53.8216 127.815 53.833 127.787 53.833Z" fill="white"/>
<path d="M152.416 45.1617L147.508 45.164C147.49 45.1642 147.472 45.1712 147.459 45.1836C147.445 45.196 147.436 45.2129 147.434 45.2313L146.524 53.7658C146.522 53.7841 146.513 53.8011 146.5 53.8135C146.486 53.8259 146.468 53.8328 146.45 53.833H140.35C140.339 53.8329 140.329 53.8306 140.319 53.8262C140.31 53.8217 140.301 53.8153 140.294 53.8073C140.287 53.7993 140.282 53.79 140.279 53.7798C140.276 53.7696 140.275 53.7589 140.276 53.7484L145.874 7.77704C145.876 7.75869 145.885 7.74183 145.899 7.72964C145.913 7.71745 145.931 7.7108 145.949 7.71094H154.102C154.12 7.71108 154.138 7.71786 154.152 7.73002C154.165 7.74218 154.174 7.75889 154.176 7.77704L160.14 53.7495C160.141 53.7601 160.14 53.7708 160.137 53.7809C160.134 53.7911 160.129 53.8005 160.122 53.8085C160.115 53.8165 160.106 53.8229 160.097 53.8273C160.087 53.8318 160.077 53.8341 160.066 53.8342L153.474 53.8295C153.456 53.8294 153.438 53.8224 153.425 53.81C153.411 53.7976 153.403 53.7806 153.401 53.7623L152.49 45.229C152.488 45.2106 152.48 45.1936 152.466 45.1812C152.452 45.1688 152.435 45.1619 152.416 45.1617ZM151.675 38.2367C151.683 38.2368 151.691 38.2352 151.698 38.232C151.705 38.2289 151.711 38.2242 151.717 38.2184C151.722 38.2126 151.726 38.2058 151.728 38.1984C151.731 38.1909 151.732 38.1831 151.731 38.1753L149.945 21.7105C149.915 21.4337 149.886 21.4341 149.857 21.7116L148.131 38.2008C148.131 38.2057 148.131 38.2107 148.133 38.2155C148.134 38.2203 148.137 38.2247 148.14 38.2284C148.143 38.2321 148.148 38.2351 148.152 38.2372C148.157 38.2392 148.162 38.2402 148.167 38.2402L151.675 38.2367Z" fill="white"/>
<path d="M167.579 27.5744C167.551 27.845 167.537 28.087 167.537 28.3003C167.535 36.7931 167.535 45.2842 167.535 53.7739C167.535 53.7902 167.529 53.8058 167.518 53.8173C167.507 53.8289 167.491 53.8353 167.475 53.8353L161.413 53.8284C161.302 53.8284 161.246 53.7723 161.246 53.6602V7.76892C161.246 7.75354 161.252 7.73879 161.263 7.72792C161.274 7.71705 161.288 7.71094 161.304 7.71094H167.523C167.544 7.71094 167.556 7.72099 167.561 7.74109L173.436 32.0214C173.485 32.2263 173.51 32.2232 173.51 32.0121L173.506 7.75848C173.506 7.74587 173.511 7.73378 173.52 7.72486C173.529 7.71595 173.541 7.71094 173.554 7.71094H179.826C179.841 7.71094 179.856 7.71705 179.867 7.72792C179.877 7.73879 179.883 7.75354 179.883 7.76892V53.6834C179.883 53.7028 179.88 53.7219 179.872 53.7398C179.865 53.7576 179.854 53.7739 179.841 53.7876C179.827 53.8012 179.811 53.8121 179.793 53.8195C179.775 53.8269 179.756 53.8307 179.737 53.8307L174.287 53.8342C174.261 53.8341 174.236 53.8255 174.215 53.8095C174.195 53.7935 174.181 53.7712 174.175 53.746L167.602 27.5721C167.592 27.5304 167.584 27.5312 167.579 27.5744Z" fill="white"/>
<path d="M182.662 53.8202C182.606 53.8196 182.552 53.7967 182.513 53.7565C182.473 53.7164 182.451 53.6622 182.451 53.6057V7.82568C182.451 7.79554 182.463 7.76663 182.484 7.74532C182.505 7.72401 182.533 7.71204 182.563 7.71204C186.176 7.71049 189.803 7.70817 193.443 7.70508C197.368 7.70276 199.914 9.50938 200.701 13.3824C200.88 14.2675 200.97 15.1043 200.971 15.8928C200.974 25.6796 200.967 35.4661 200.951 45.2521C200.942 50.4064 198.577 53.8028 193.162 53.8318C189.71 53.8503 186.21 53.8465 182.662 53.8202ZM193.794 17.4003C193.791 15.9473 193.612 14.0967 191.711 14.0027C190.972 13.9664 190.24 13.9587 189.513 13.9795C189.499 13.9798 189.486 13.9855 189.477 13.9952C189.467 14.005 189.462 14.0181 189.462 14.0317V47.0228C189.462 47.0668 189.484 47.09 189.528 47.0923C190.172 47.1279 190.816 47.1271 191.459 47.09C193.635 46.966 193.81 45.1048 193.811 43.3968C193.817 34.7317 193.812 26.0662 193.794 17.4003Z" fill="white"/>
<path d="M50.2882 98.4908C49.0845 96.908 48.6483 94.8544 48.6437 92.9063C48.636 89.7453 48.6371 86.5843 48.6472 83.4233C48.6472 83.3893 48.6637 83.3723 48.6968 83.3723L55.4801 83.3734C55.5186 83.3734 55.5378 83.3931 55.5378 83.4326C55.537 85.7061 55.5382 87.9777 55.5413 90.2474C55.5424 91.8719 55.3532 94.5216 57.6797 94.6283C59.2295 94.699 59.885 93.6623 60.0062 92.243C60.1435 90.6428 60.177 88.6982 59.9854 87.2893C59.728 85.4073 58.7967 83.9323 57.6254 82.404C56.0152 80.3044 54.3984 78.2098 52.7751 76.1203C50.6632 73.3999 49.3961 70.6413 49.1041 67.1742C48.6102 61.3183 48.9934 54.8456 56.4979 54.3574C62.29 53.9805 66.7502 54.9302 66.8253 61.9039C66.8537 64.489 66.8587 67.1247 66.8403 69.811C66.8403 69.8252 66.8347 69.8388 66.8247 69.8488C66.8148 69.8588 66.8012 69.8644 66.7872 69.8644H60.155C60.1394 69.8644 60.1244 69.8582 60.1134 69.8471C60.1024 69.836 60.0962 69.8209 60.0962 69.8052C60.0962 67.582 60.0954 65.3502 60.0939 63.1099C60.0927 61.6662 59.6853 60.4081 57.9555 60.5321C56.9799 60.6032 56.4095 61.1088 56.2441 62.0488C56.0259 63.2838 56.0467 64.8481 56.1748 66.0134C56.3975 68.0427 57.4408 69.6673 58.656 71.2628C60.7047 73.953 62.1145 75.7898 62.8854 76.7731C64.6257 78.9937 66.2021 81.1749 66.9614 83.8964C67.5661 86.0613 67.5465 88.3608 67.4946 90.7077C67.4669 91.9864 67.395 92.989 67.2788 93.7157C66.6071 97.9156 64.1283 100.86 59.7604 101.281C56.4587 101.598 52.5039 101.407 50.2882 98.4908Z" fill="white"/>
<path d="M92.3271 96.4263C92.3259 96.4209 92.3231 96.416 92.3189 96.4125C92.3148 96.409 92.3095 96.4069 92.3039 96.4067C92.2984 96.4064 92.2928 96.4079 92.288 96.4111C92.2833 96.4142 92.2796 96.4187 92.2775 96.4239C91.2838 98.8996 89.1316 101.136 86.4058 101.438C82.0448 101.92 79.5025 98.6132 78.9508 94.6776C78.8839 94.2022 78.8504 93.4813 78.8504 92.515C78.8474 82.974 78.8528 73.4331 78.8666 63.8921C78.8724 60.2974 80.0576 56.3838 83.7308 54.9413C85.6118 54.2027 87.726 54.2305 89.7755 54.3407C95.4187 54.6445 97.0112 58.4224 97.0793 63.4364C97.1047 65.3025 97.1174 67.2406 97.1174 69.2505C97.1174 69.2818 97.105 69.3119 97.0829 69.3341C97.0609 69.3563 97.0309 69.3688 96.9997 69.3688L90.4149 69.3757C90.3846 69.3757 90.3555 69.3636 90.3341 69.3421C90.3127 69.3206 90.3006 69.2914 90.3006 69.2609C90.3045 67.3337 90.3029 65.4015 90.296 63.4642C90.2902 61.915 89.3589 60.752 87.7029 61.0534C86.0734 61.3503 85.9477 63.1442 85.9477 64.4696C85.9438 73.3503 85.9407 82.2315 85.9384 91.1131C85.9373 92.6113 86.4485 94.3854 88.2522 94.3738C90.311 94.3622 90.7911 92.8583 90.7911 91.134C90.7895 87.4156 90.7918 83.7057 90.798 80.0044C90.798 79.9922 90.7956 79.9802 90.791 79.969C90.7863 79.9579 90.7795 79.9477 90.7709 79.9392C90.7623 79.9307 90.7521 79.9239 90.7409 79.9194C90.7297 79.9149 90.7178 79.9126 90.7057 79.9128L87.7664 79.9278C87.7508 79.928 87.7354 79.9251 87.721 79.9192C87.7066 79.9133 87.6935 79.9046 87.6824 79.8936C87.6714 79.8826 87.6626 79.8695 87.6566 79.8551C87.6506 79.8407 87.6475 79.8252 87.6475 79.8096V72.9368C87.6475 72.906 87.6597 72.8765 87.6813 72.8548C87.703 72.833 87.7323 72.8208 87.7629 72.8208H97.3263C97.3532 72.8208 97.3791 72.8314 97.3981 72.8504C97.4171 72.8693 97.4278 72.8949 97.4278 72.9217V100.796C97.4278 100.834 97.4086 100.854 97.3701 100.854H93.5353C93.5177 100.853 93.5005 100.848 93.4866 100.837C93.4726 100.826 93.4626 100.811 93.458 100.794L92.3271 96.4263Z" fill="white"/>
<path d="M145.57 86.818C146.069 93.0426 145.437 101.121 137.148 101.334C135.697 101.371 134.221 101.393 132.791 101.11C128.202 100.205 126.785 96.5468 126.773 92.312C126.766 89.3513 126.766 86.3905 126.772 83.4297C126.773 83.3918 126.792 83.3729 126.83 83.3729H133.635C133.65 83.3729 133.665 83.3791 133.676 83.3902C133.688 83.4013 133.694 83.4163 133.694 83.432C133.694 86.1964 133.694 88.9694 133.694 91.7508C133.694 93.4763 134.416 94.7622 136.316 94.5906C137.728 94.4619 138.091 93.1585 138.179 91.9456C138.28 90.5665 138.281 89.1866 138.182 87.8059C138.032 85.7361 137.068 84.0814 135.828 82.4731C134.149 80.2961 132.466 78.1223 130.78 75.9516C128.461 72.9692 127.227 69.7247 127.169 65.9271C127.133 63.5894 127.032 61.8199 127.535 59.8324C128.903 54.4334 134.075 53.9858 138.656 54.3824C143.439 54.7963 144.959 57.8762 144.971 62.3278C144.977 64.8209 144.977 67.3139 144.972 69.807C144.972 69.8221 144.966 69.8365 144.955 69.8472C144.945 69.8579 144.93 69.8638 144.915 69.8638H138.311C138.295 69.8638 138.28 69.8575 138.269 69.8462C138.257 69.8349 138.251 69.8195 138.251 69.8035C138.252 67.6869 138.254 65.5618 138.256 63.4282C138.257 62.2246 138.145 60.7391 136.628 60.549C134.968 60.3403 134.382 61.2888 134.288 62.7696C134.233 63.6261 134.222 64.4838 134.253 65.3427C134.337 67.5795 135.339 69.3409 136.658 71.064C138.535 73.5153 140.411 75.9675 142.287 78.4203C144.218 80.9471 145.308 83.5631 145.57 86.818Z" fill="white"/>
<path d="M155.793 101.401C151.967 101.386 148.9 99.5633 147.921 95.6892C147.526 94.1249 147.43 92.8621 147.43 91.0764C147.425 81.8895 147.425 72.7025 147.428 63.5156C147.43 58.7173 149.561 54.7527 154.808 54.3689C158.685 54.0848 163.225 54.2437 165.025 58.4135C165.762 60.1239 165.882 62.1218 165.887 63.9876C165.892 66.6917 165.893 69.3951 165.888 72.0976C165.888 72.1127 165.882 72.1272 165.872 72.1378C165.861 72.1485 165.847 72.1545 165.832 72.1545H159.083C159.07 72.1544 159.057 72.15 159.047 72.142C159.037 72.1341 159.03 72.123 159.026 72.1104C158.958 71.8356 159.021 71.5109 159.022 71.3149C159.027 68.9277 159.026 66.5406 159.019 64.1534C159.014 62.145 158.304 60.5228 155.909 61.1153C154.882 61.3693 154.554 62.479 154.553 63.4066C154.551 72.8355 154.55 82.2644 154.551 91.6933C154.551 93.0164 154.971 94.3881 156.504 94.5644C158.268 94.7673 159.042 93.261 159.014 91.7443C158.947 88.138 159.03 84.5004 159.023 80.8223C159.023 80.8069 159.029 80.7921 159.04 80.7813C159.051 80.7704 159.065 80.7643 159.081 80.7643H165.833C165.848 80.7643 165.863 80.7705 165.874 80.7816C165.885 80.7927 165.892 80.8078 165.892 80.8234C165.891 84.3996 165.888 87.9842 165.885 91.5773C165.88 96.9021 163.791 101.376 157.727 101.401C157.081 101.404 156.437 101.404 155.793 101.401Z" fill="white"/>
<path d="M194.401 100.785C189.84 99.1508 189.18 94.1402 189.177 89.9762C189.168 76.7911 189.168 68.3671 189.175 64.7044C189.183 60.5184 190.386 56.0575 194.886 54.7344C196.609 54.2277 198.576 54.2288 200.375 54.3436C207.047 54.7727 208.267 59.956 208.27 65.5277C208.275 73.7762 208.275 82.0246 208.271 90.2731C208.269 95.846 206.758 101.166 200.043 101.392C198.153 101.456 196.253 101.449 194.401 100.785ZM196.297 90.2081C196.301 91.8605 196.248 94.5009 198.636 94.5867C200.693 94.6597 201.149 92.8427 201.149 91.2007C201.149 82.197 201.145 73.1933 201.135 64.1896C201.134 62.9813 200.764 61.4623 199.449 61.1109C198.633 60.8929 197.919 61.0058 197.306 61.4495C196.208 62.2415 196.303 64.0284 196.3 65.2042C196.277 73.5392 196.276 81.8739 196.297 90.2081Z" fill="white"/>
<path d="M213.401 99.411C210.859 97.1371 210.469 93.4578 210.467 90.2736C210.464 81.634 210.464 72.9948 210.466 64.3559C210.467 59.444 212.43 54.9367 217.91 54.4021C220.042 54.1934 222.31 54.1865 224.304 54.8567C228.774 56.3595 229.532 60.985 229.533 65.0783C229.536 73.6793 229.536 82.2802 229.534 90.8812C229.533 96.5898 227.435 101.375 220.909 101.404C218.154 101.416 215.588 101.368 213.401 99.411ZM219.136 94.3994C220.254 94.8539 221.635 94.4654 222.087 93.256C222.308 92.6662 222.418 92.0292 222.418 91.345C222.414 82.4001 222.41 73.4555 222.407 64.5113C222.407 63.5906 222.317 62.7267 221.919 62.0148C221.229 60.7844 219.215 60.6789 218.306 61.6912C217.681 62.3881 217.566 63.5837 217.566 64.5299C217.561 73.4369 217.567 82.344 217.582 91.2511C217.584 92.4988 217.831 93.8694 219.136 94.3994Z" fill="white"/>
<path d="M21.2845 100.832C17.6071 100.861 13.9331 100.866 10.2625 100.847C10.2494 100.847 10.2367 100.842 10.2274 100.832C10.2181 100.823 10.2129 100.81 10.2129 100.797V54.7911C10.2129 54.7772 10.2184 54.764 10.2281 54.7542C10.2378 54.7444 10.251 54.7389 10.2648 54.7389C14.0777 54.7188 17.8975 54.7254 21.7242 54.7586C22.4213 54.7648 23.1514 54.8827 23.9146 55.1123C27.9698 56.3356 28.7014 59.9199 28.7026 63.6676C28.7072 73.2604 28.708 82.8536 28.7049 92.4471C28.7049 92.8321 28.661 93.3833 28.5733 94.1007C28.0621 98.2682 25.566 100.798 21.2845 100.832ZM21.5384 64.4213C21.5361 62.878 21.3076 61.0319 19.2985 61.0273C18.2968 61.0249 17.6102 61.0226 17.2386 61.0203C17.1924 61.0203 17.1693 61.0435 17.1693 61.0899L17.1659 94.0404C17.1659 94.086 17.1885 94.1095 17.2339 94.1111C19.0504 94.183 20.9949 94.3998 21.4115 92.2129C21.5038 91.7258 21.55 91.2338 21.55 90.7367C21.5523 81.9649 21.5484 73.1931 21.5384 64.4213Z" fill="white"/>
<path d="M31.1582 100.778V54.809C31.1582 54.7887 31.1662 54.7692 31.1805 54.7548C31.1948 54.7405 31.2142 54.7324 31.2344 54.7324H46.9498C46.97 54.7324 46.9894 54.7405 47.0037 54.7548C47.0179 54.7692 47.026 54.7887 47.026 54.809V61.3524C47.026 61.3727 47.0179 61.3922 47.0037 61.4065C46.9894 61.4209 46.97 61.429 46.9498 61.429H38.2162C38.2062 61.429 38.1963 61.4309 38.187 61.4348C38.1778 61.4386 38.1694 61.4443 38.1623 61.4514C38.1553 61.4585 38.1496 61.4669 38.1458 61.4762C38.142 61.4855 38.14 61.4954 38.14 61.5055V73.4166C38.14 73.4267 38.142 73.4366 38.1458 73.4459C38.1496 73.4552 38.1553 73.4637 38.1623 73.4708C38.1694 73.4779 38.1778 73.4835 38.187 73.4874C38.1963 73.4912 38.2062 73.4932 38.2162 73.4932L45.0457 73.4862C45.0659 73.4862 45.0852 73.4943 45.0995 73.5086C45.1138 73.523 45.1218 73.5425 45.1218 73.5628V80.4564C45.1218 80.4767 45.1138 80.4962 45.0995 80.5105C45.0852 80.5249 45.0659 80.533 45.0457 80.533H38.2162C38.2062 80.533 38.1963 80.5349 38.187 80.5388C38.1778 80.5426 38.1694 80.5483 38.1623 80.5554C38.1553 80.5625 38.1496 80.5709 38.1458 80.5802C38.142 80.5895 38.14 80.5994 38.14 80.6095V93.7625C38.14 93.7828 38.148 93.8023 38.1623 93.8167C38.1766 93.831 38.196 93.8391 38.2162 93.8391H47.3249C47.3451 93.8391 47.3644 93.8471 47.3787 93.8615C47.393 93.8758 47.401 93.8953 47.401 93.9156V100.778C47.401 100.798 47.393 100.818 47.3787 100.832C47.3644 100.846 47.3451 100.854 47.3249 100.854H31.2344C31.2142 100.854 31.1948 100.846 31.1805 100.832C31.1662 100.818 31.1582 100.798 31.1582 100.778Z" fill="white"/>
<path d="M76.3887 54.7334H69.5384C69.5021 54.7334 69.4727 54.763 69.4727 54.7995V100.788C69.4727 100.825 69.5021 100.854 69.5384 100.854H76.3887C76.425 100.854 76.4545 100.825 76.4545 100.788V54.7995C76.4545 54.763 76.425 54.7334 76.3887 54.7334Z" fill="white"/>
<path d="M112.084 79.0858V54.7927C112.084 54.7783 112.09 54.7644 112.1 54.7542C112.11 54.744 112.124 54.7382 112.139 54.7382L118.374 54.7347C118.397 54.7347 118.419 54.7438 118.435 54.7599C118.451 54.776 118.46 54.7978 118.46 54.8206V100.797C118.46 100.812 118.454 100.827 118.443 100.838C118.432 100.848 118.417 100.854 118.402 100.854H112.832C112.812 100.854 112.794 100.848 112.779 100.836C112.764 100.824 112.753 100.807 112.748 100.788L106.158 74.5403C106.156 74.5312 106.15 74.5233 106.142 74.5181C106.135 74.5128 106.125 74.5105 106.116 74.5116C106.107 74.5128 106.099 74.5173 106.092 74.5242C106.086 74.5312 106.083 74.5402 106.083 74.5496C106.084 74.5673 106.086 74.5836 106.089 74.5983C106.095 74.6241 106.101 74.6481 106.105 74.6673C106.109 74.6865 106.111 74.7 106.112 74.7061V100.797C106.112 100.812 106.106 100.827 106.095 100.838C106.084 100.848 106.069 100.854 106.054 100.854H99.9377C99.9071 100.854 99.8777 100.842 99.8561 100.821C99.8344 100.799 99.8223 100.769 99.8223 100.739V54.7904C99.8223 54.775 99.8283 54.7603 99.8392 54.7494C99.85 54.7385 99.8647 54.7324 99.88 54.7324H106.085C106.096 54.7324 106.107 54.7362 106.115 54.7432C106.124 54.7501 106.13 54.7598 106.132 54.7707L112.017 79.0939C112.017 79.0983 112.019 79.1026 112.021 79.1065C112.023 79.1104 112.026 79.1138 112.029 79.1165C112.033 79.1193 112.037 79.1213 112.041 79.1225C112.045 79.1237 112.05 79.124 112.054 79.1235C112.059 79.123 112.063 79.1216 112.067 79.1194C112.071 79.1172 112.074 79.1143 112.077 79.1108C112.08 79.1073 112.082 79.1033 112.083 79.099C112.084 79.0947 112.084 79.0902 112.084 79.0858Z" fill="white"/>
<path d="M175.068 80.6756L175.062 100.77C175.062 100.781 175.059 100.792 175.055 100.802C175.051 100.813 175.045 100.822 175.037 100.83C175.029 100.838 175.02 100.844 175.01 100.848C174.999 100.852 174.988 100.854 174.977 100.854H168.166C168.144 100.854 168.123 100.846 168.107 100.83C168.091 100.814 168.082 100.792 168.082 100.77V54.8194C168.082 54.7969 168.091 54.7754 168.107 54.7595C168.123 54.7437 168.144 54.7347 168.166 54.7347L174.981 54.7405C175.003 54.7405 175.025 54.7495 175.04 54.7653C175.056 54.7812 175.065 54.8027 175.065 54.8252L175.063 73.114C175.063 73.1364 175.072 73.158 175.087 73.1739C175.103 73.1897 175.125 73.1986 175.147 73.1986H179.711C179.733 73.1986 179.755 73.1897 179.771 73.1739C179.786 73.158 179.795 73.1364 179.795 73.114V54.8171C179.795 54.7946 179.804 54.7731 179.82 54.7572C179.836 54.7413 179.857 54.7324 179.88 54.7324H186.722C186.744 54.7324 186.766 54.7413 186.781 54.7572C186.797 54.7731 186.806 54.7946 186.806 54.8171V100.77C186.806 100.792 186.797 100.814 186.781 100.83C186.766 100.846 186.744 100.854 186.722 100.854H179.88C179.857 100.854 179.836 100.846 179.82 100.83C179.804 100.814 179.795 100.792 179.795 100.77V80.6756C179.795 80.6531 179.786 80.6316 179.771 80.6157C179.755 80.5998 179.733 80.5909 179.711 80.5909H175.153C175.13 80.5909 175.109 80.5998 175.093 80.6157C175.077 80.6316 175.068 80.6531 175.068 80.6756Z" fill="white"/>
<path d="M238.993 93.7231H247.34C247.362 93.7231 247.383 93.7318 247.398 93.7472C247.414 93.7627 247.422 93.7836 247.422 93.8054V100.772C247.422 100.794 247.414 100.815 247.398 100.83C247.383 100.846 247.362 100.854 247.34 100.854H232.012C231.99 100.854 231.969 100.846 231.954 100.83C231.938 100.815 231.93 100.794 231.93 100.772V54.8148C231.93 54.7929 231.938 54.772 231.954 54.7565C231.969 54.7411 231.99 54.7324 232.012 54.7324H238.83C238.851 54.7324 238.872 54.7411 238.887 54.7565C238.903 54.772 238.912 54.7929 238.912 54.8148V93.6408C238.912 93.6626 238.92 93.6836 238.936 93.699C238.951 93.7144 238.972 93.7231 238.993 93.7231Z" fill="white"/>
</svg>
