<svg width="251.890625" height="371.433594" viewBox="0 0 251.891 371.434" fill="none" xmlns="http://www.w3.org/2000/svg" xmlns:xlink="http://www.w3.org/1999/xlink">
	<desc>
			Created with Pixso.
	</desc>
	<defs/>
	<path id="Vector 137" d="M197.26 364.22C207.31 350.01 225.29 319.93 232.17 290.9C241.47 251.61 248.71 213.48 248.71 209.47C248.71 205.46 252.46 159.71 251.81 148.2C251.17 136.7 243.8 96.11 240.82 89.13C238.45 83.55 231.04 65.35 227.64 56.94C219.46 42.08 202.12 11.42 198.3 7.69C193.52 3.04 191.71 -0.58 186.02 0.07C177.59 1.03 173.28 10.35 169.27 17.82C164.06 27.53 158.1 39.29 156.03 45.57C154.17 51.2 151.43 60.39 149.07 68.49C146.64 76.82 146.21 86.11 141.68 93.52C137.42 100.5 137.16 102.18 133.8 104.12C126.67 108.24 118.25 101.31 113.09 94.89L77.7 50.87C70.29 42.25 54.85 24.55 52.36 22.69C49.26 20.36 37.89 9.64 35.56 8.99C33.24 8.34 26.25 6.14 22.64 8.99C22.24 9.3 21.78 9.8 21.26 10.43C12.46 21.33 10.78 36.02 6.35 49.32C5.73 51.18 2.39 84.99 0.79 101.67L0 175.16C-0.08 182.43 0.36 189.69 1.32 196.9C2.68 207.23 5.1 217.41 8.57 227.23C11.61 235.81 14.57 243.99 15.01 244.76C15.92 246.31 30.65 272.68 32.07 274.75C32.45 275.29 34.9 278.06 38.37 281.89C54.7 299.94 73.06 316.01 92.82 330.2L132.25 352.56L170.25 368.98C172.83 369.79 178.81 371.43 182.01 371.43C186.02 371.43 190.93 370.78 191.83 369.88C193.69 368.02 195.75 366.36 197.26 364.22Z" fill="#27AFDC" fill-opacity="1.000000" fill-rule="evenodd"/>
	<path id="Ellipse 313" d="M210.71 174.45C202.31 191.64 193.13 200.17 177.75 206.63C162.86 206.63 154.22 195.86 154.22 180.26C154.22 164.66 169.61 145.5 184.34 147.69C206.96 151.05 210.71 158.85 210.71 174.45Z" fill="#FFFFFF" fill-opacity="1.000000" fill-rule="nonzero"/>
	<path id="Ellipse 315" d="M116.74 184.57C108.34 201.76 99.93 212.06 83.78 216.75C66.59 217.87 60.25 205.98 60.25 190.38C60.25 174.78 75.52 156.77 90.37 157.81C111.96 159.32 116.74 168.97 116.74 184.57Z" fill="#FFFFFF" fill-opacity="1.000000" fill-rule="nonzero"/>
	<path id="Ellipse 314" d="M194.81 167.98C194.81 174.9 188.99 180.13 178.52 180.13C161.46 180.13 164.56 174.9 164.56 167.98C164.56 160.09 172.49 152.86 180.07 153.76C189.89 154.92 194.81 161.05 194.81 167.98Z" fill="#000000" fill-opacity="1.000000" fill-rule="nonzero"/>
	<path id="Ellipse 316" d="M100.7 180.26C100.7 187.15 94.11 190.34 85.19 190.34C77.37 190.34 70.71 190.08 70.71 180.91C70.71 173.28 73.95 164.23 85.96 164.23C96.17 164.23 100.7 171.08 100.7 180.26Z" fill="#000000" fill-opacity="1.000000" fill-rule="nonzero"/>
</svg>
