<svg width="491.578125" height="177.000000" viewBox="0 0 491.578 177" fill="none" xmlns="http://www.w3.org/2000/svg" xmlns:xlink="http://www.w3.org/1999/xlink">
	<desc>
			Created with Pixso.
	</desc>
	<defs/>
	<path id="Ellipse 323" d="M473.23 50C488.23 49 492.97 70.18 491.23 76C486.85 90.58 467.73 94 453.73 86.5C450.23 95.5 443.6 107.5 431.23 107.5C411.73 105.5 414.23 102 406.73 94.5C389.73 107.5 377.25 95 374.25 89.5C370.11 82.93 361.53 101.9 344.24 83.71C340.42 79.69 339.25 73.88 340.45 68.47C342.31 60.12 343.09 61.16 348.72 53C338.22 24.5 357.74 0 372.72 0C384.61 0 403.23 6.5 407.74 27.5C416.73 22.5 420.73 25 423.73 27.5C432.73 20 442.43 14.74 450.73 17.5C468.23 21 473.23 40.26 473.23 50Z" fill="#88D5E6" fill-opacity="1.000000" fill-rule="nonzero"/>
	<path id="Ellipse 323" d="M408.65 27C408.35 27.16 408.05 27.32 407.74 27.5C407.67 27.15 407.59 26.82 407.5 26.48C402.62 6.28 384.42 0 372.72 0C357.74 0 338.22 24.5 348.72 53C343.09 61.16 342.31 60.12 340.45 68.47C339.25 73.88 340.42 79.69 344.24 83.71C355.26 95.31 362.75 91.8 367.79 89.44C370.67 88.09 372.75 87.12 374.25 89.5C377.25 95 389.73 107.5 406.73 94.5C414.23 102 411.73 105.5 431.23 107.5C443.18 107.5 449.77 96.3 453.35 87.43C453.48 87.12 453.6 86.8 453.73 86.5C454.02 86.66 454.32 86.81 454.62 86.96C468.53 93.85 486.95 90.27 491.23 76C492.93 70.31 488.44 49.94 474.23 49.96C473.9 49.96 473.57 49.97 473.23 50C473.23 49.67 473.22 49.34 473.21 49C472.88 39 467.64 20.88 450.73 17.5C442.43 14.74 432.73 20 423.73 27.5C420.83 25.08 417 22.67 408.65 27ZM431.28 106.5Q433.64 106.49 435.82 105.87Q446.26 102.94 452.79 86.13L453.21 85.08L454.2 85.61Q460.51 89 467 89.39Q471.39 89.65 475.85 88.55Q482.86 86.83 486.7 82.37Q489.11 79.58 490.27 75.71Q490.91 73.58 490.27 69.49Q489.72 65.98 488.43 62.76Q488.05 61.8 487.6 60.87Q484.18 53.77 478.84 51.76Q476.28 50.79 473.29 50.99L472.23 51.07L472.23 50Q472.23 46.18 471.5 42.52Q470.39 37.03 467.66 31.87Q463.88 24.77 457.97 21.28Q454.6 19.29 450.53 18.48L450.47 18.46L450.41 18.44Q440.21 15.05 424.37 28.26L423.73 28.8L423.09 28.26Q420.35 25.99 417.85 25.67Q413.95 25.19 408.22 28.37L407.04 29.03L406.76 27.71Q405.03 19.63 400.43 13.82Q397.17 9.7 392.46 6.71Q388.03 3.91 383.21 2.48Q378.18 1 372.72 1Q367.38 1 361.76 5.08Q355.97 9.28 352.03 16.3Q348.1 23.31 347.01 30.75Q345.47 41.28 349.66 52.65L349.84 53.14L349.54 53.56Q348.07 55.7 346.01 58.42Q342.75 62.72 341.43 68.7Q340.24 74.04 341.89 78.27Q342.89 80.85 344.96 83.01Q351.93 90.35 358.32 90.81Q361.95 91.07 367.37 88.53Q370.2 87.21 371.43 87.07Q372.43 86.97 373.25 87.3Q374.33 87.74 375.1 88.96L375.11 88.99L375.13 89.01Q376.35 91.25 378.04 93.04Q381.07 96.23 385.6 98Q388.23 99.02 390.91 99.2Q398.3 99.68 406.12 93.7L406.82 93.17L407.43 93.79Q409.18 95.53 411.46 98.4Q414.46 102.2 417.07 103.46Q421.18 105.46 431.28 106.5Z" fill="#FDFBE2" fill-opacity="1.000000" fill-rule="evenodd"/>
	<path id="Ellipse 324" d="M133.23 103C148.23 102 152.97 123.18 151.23 129C146.85 143.58 127.73 147 113.73 139.5C110.23 148.5 103.6 160.5 91.23 160.5C71.73 158.5 74.23 155 66.73 147.5C49.73 160.5 37.25 148 34.25 142.5C30.11 135.93 21.53 154.9 4.24 136.71C0.42 132.69 -0.75 126.88 0.45 121.47C2.31 113.12 3.09 114.16 8.72 106C-1.78 77.5 17.74 53 32.72 53C44.61 53 63.23 59.5 67.74 80.5C76.73 75.5 80.73 78 83.73 80.5C92.73 73 102.43 67.74 110.73 70.5C128.23 74 133.23 93.26 133.23 103Z" fill="#88D5E6" fill-opacity="1.000000" fill-rule="nonzero"/>
	<path id="Ellipse 324" d="M68.65 80C68.35 80.16 68.05 80.32 67.74 80.5C67.67 80.15 67.59 79.82 67.5 79.48C62.62 59.28 44.42 53 32.72 53C17.74 53 -1.78 77.5 8.72 106C3.09 114.16 2.31 113.12 0.45 121.47C-0.75 126.88 0.42 132.69 4.24 136.71C15.26 148.31 22.75 144.8 27.79 142.44C30.67 141.09 32.75 140.12 34.25 142.5C37.25 148 49.73 160.5 66.73 147.5C74.23 155 71.73 158.5 91.23 160.5C103.18 160.5 109.77 149.3 113.35 140.43C113.48 140.12 113.6 139.8 113.73 139.5C114.02 139.66 114.32 139.81 114.62 139.96C128.53 146.85 146.95 143.27 151.23 129C152.93 123.31 148.44 102.94 134.23 102.96C133.9 102.96 133.57 102.97 133.23 103C133.23 102.67 133.22 102.34 133.21 102C132.88 92 127.64 73.88 110.73 70.5C102.43 67.74 92.73 73 83.73 80.5C80.83 78.08 77 75.67 68.65 80ZM91.28 159.5Q93.64 159.49 95.82 158.87Q106.26 155.94 112.79 139.13L113.21 138.08L114.2 138.61Q120.51 142 127 142.39Q131.39 142.65 135.85 141.55Q142.86 139.83 146.7 135.37Q149.11 132.58 150.27 128.71Q150.91 126.58 150.27 122.49Q149.72 118.98 148.43 115.76Q148.05 114.8 147.6 113.87Q144.18 106.77 138.84 104.76Q136.28 103.79 133.29 103.99L132.23 104.07L132.23 103Q132.23 99.18 131.5 95.52Q130.39 90.03 127.66 84.87Q123.88 77.77 117.97 74.28Q114.6 72.29 110.53 71.48L110.47 71.46L110.41 71.44Q100.21 68.05 84.37 81.26L83.73 81.8L83.09 81.26Q80.35 78.99 77.85 78.67Q73.95 78.19 68.22 81.37L67.04 82.03L66.76 80.71Q65.03 72.63 60.43 66.82Q57.17 62.7 52.46 59.71Q48.03 56.91 43.21 55.48Q38.18 54 32.72 54Q27.38 54 21.76 58.08Q15.97 62.28 12.03 69.3Q8.1 76.31 7.01 83.75Q5.47 94.28 9.66 105.65L9.84 106.14L9.54 106.56Q8.07 108.7 6.01 111.42Q2.75 115.72 1.42 121.7Q0.24 127.04 1.89 131.27Q2.89 133.85 4.96 136.02Q11.92 143.35 18.32 143.81Q21.95 144.07 27.37 141.53Q30.2 140.21 31.43 140.07Q32.42 139.97 33.25 140.3Q34.33 140.74 35.1 141.96L35.11 141.99L35.13 142.02Q36.35 144.25 38.04 146.04Q41.07 149.23 45.6 151Q48.23 152.02 50.91 152.2Q58.3 152.68 66.12 146.7L66.82 146.17L67.43 146.79Q69.18 148.53 71.46 151.4Q74.46 155.2 77.07 156.46Q81.17 158.46 91.28 159.5Z" fill="#FDFBE2" fill-opacity="1.000000" fill-rule="evenodd"/>
	<path id="Ellipse 327" d="M322.53 117C342.53 119 349.22 131.5 348.53 142.5C342.22 157.5 333.03 159 322.53 159C313.03 173.5 303.22 177 290.03 177C279.72 177 275.41 176 267.22 164.5C256.22 176.5 247.03 168.93 234.22 164.5C226.68 160 209.49 178 198.5 159C190.44 133.5 212.46 137.75 212.46 130.5C213.94 110 225.53 102.5 240.52 97C245.52 73.5 255.37 71 265.53 71C273.65 71 285.53 76.5 290.03 91.5C306.03 88.5 322.53 103.8 322.53 117Z" fill="#88D5E6" fill-opacity="1.000000" fill-rule="nonzero"/>
	<path id="Ellipse 327" d="M290.03 91.5C285.53 76.5 273.65 71 265.53 71C255.37 71 245.52 73.5 240.52 97C225.53 102.5 213.94 110 212.46 130.5C212.46 132.91 210.03 134.05 207.07 135.43C201.14 138.21 193.12 141.97 198.5 159C205.57 171.22 215.21 168.13 223.19 165.57C227.61 164.15 231.53 162.89 234.22 164.5C236.6 165.32 238.85 166.25 241.01 167.14C250.25 170.96 257.85 174.1 266.52 165.23C266.75 165 266.99 164.75 267.22 164.5C267.43 164.78 267.62 165.05 267.82 165.32C275.63 176.04 279.97 177 290.03 177C303.22 177 313.03 173.5 322.53 159C333.03 159 342.22 157.5 348.53 142.5C349.22 131.5 342.53 119 322.53 117C322.53 103.8 306.03 88.5 290.03 91.5ZM347.54 142.27Q347.83 137.12 346.09 132.8Q344.83 129.7 342.53 127.02Q342.29 126.75 342.04 126.47Q335.43 119.29 322.43 117.99L321.53 117.9L321.53 117Q321.53 115.47 321.29 113.98Q319.99 105.89 311.64 98.94Q304.26 92.8 296.43 92.14Q293.35 91.89 290.21 92.48L289.33 92.64L289.07 91.78Q286.75 84.06 281.71 79.09Q280.25 77.64 278.56 76.43Q273.63 72.91 268.32 72.19Q266.94 72 265.53 72Q256.57 72 251.72 75.96Q244.82 81.6 241.5 97.2L241.39 97.75L240.86 97.93Q228.16 102.6 222.14 108.82Q221.67 109.31 221.21 109.83Q214.4 117.62 213.46 130.53Q213.46 130.58 213.46 130.63Q213.33 133.6 207.5 136.34Q201.32 139.23 199.4 142.39Q196.06 147.89 199.42 158.59Q202.88 164.53 207.81 166.22Q209.15 166.68 210.6 166.83Q214.68 167.25 222.89 164.61Q231.52 161.84 234.64 163.58Q237.03 164.42 241.39 166.22Q250.28 169.89 254.33 169.95Q255.16 169.97 255.97 169.88Q261.5 169.26 266.49 163.82L267.32 162.91L268.03 163.92Q273.71 171.89 278.28 174.16Q281.96 176 290.03 176Q300.42 176 307.21 172.54Q315.07 168.54 321.69 158.45L321.99 158L322.53 158Q331.73 158 336.64 155.48Q343.39 152.03 347.54 142.27Z" fill="#FDFBE2" fill-opacity="1.000000" fill-rule="evenodd"/>
</svg>
