<svg width="469.851562" height="213.500000" viewBox="0 0 469.852 213.5" fill="none" xmlns="http://www.w3.org/2000/svg" xmlns:xlink="http://www.w3.org/1999/xlink">
	<desc>
			Created with Pixso.
	</desc>
	<defs/>
	<path id="Ellipse 326" d="M267.5 156C282.5 155 287.25 176.18 285.5 182C281.13 196.58 262 200 248 192.5C244.5 201.5 237.87 213.5 225.5 213.5C206 211.5 208.5 208 201 200.5C184 213.5 171.53 201 168.53 195.5C164.39 188.93 155.81 207.9 138.51 189.71C134.69 185.69 133.52 179.88 134.72 174.47C136.58 166.12 137.36 167.16 143 159C132.5 130.5 152.01 106 167 106C178.89 106 197.5 112.5 202.01 133.5C211 128.5 215 131 218 133.5C227 126 236.71 120.74 245 123.5C262.5 127 267.5 146.26 267.5 156Z" fill="#88D5E6" fill-opacity="1.000000" fill-rule="nonzero"/>
	<path id="Ellipse 326" d="M202.93 133C202.63 133.16 202.32 133.32 202.01 133.5C201.94 133.15 201.86 132.82 201.78 132.48C196.89 112.28 178.69 106 167 106C152.01 106 132.5 130.5 143 159C137.36 167.16 136.58 166.12 134.72 174.47C133.52 179.88 134.69 185.69 138.51 189.71C149.53 201.31 157.02 197.8 162.07 195.44C164.94 194.09 167.03 193.12 168.53 195.5C171.53 201 184 213.5 201 200.5C208.5 208 206 211.5 225.5 213.5C237.45 213.5 244.04 202.3 247.63 193.43C247.75 193.12 247.88 192.8 248 192.5C248.29 192.66 248.6 192.81 248.89 192.96C262.8 199.85 281.22 196.27 285.5 182C287.21 176.31 282.71 155.94 268.5 155.96C268.18 155.96 267.84 155.97 267.5 156C267.5 155.67 267.5 155.34 267.48 155C267.15 145 261.92 126.88 245 123.5C236.71 120.74 227 126 218 133.5C215.1 131.08 211.28 128.67 202.93 133ZM225.55 212.5Q227.91 212.49 230.1 211.87Q240.53 208.94 247.07 192.13L247.48 191.08L248.47 191.61Q254.78 195 261.28 195.39Q265.66 195.65 270.12 194.55Q277.14 192.83 280.97 188.37Q283.39 185.58 284.54 181.71Q285.18 179.58 284.54 175.49Q284 171.98 282.71 168.76Q282.32 167.8 281.88 166.87Q278.46 159.77 273.11 157.76Q270.56 156.79 267.57 156.99L266.5 157.07L266.5 156Q266.5 152.18 265.77 148.52Q264.67 143.03 261.93 137.87Q258.15 130.77 252.25 127.28Q248.87 125.29 244.8 124.48L244.75 124.46L244.68 124.44Q234.49 121.05 218.64 134.27L218 134.8L217.36 134.27Q214.63 131.99 212.13 131.67Q208.22 131.19 202.5 134.37L201.32 135.03L201.03 133.71Q199.3 125.63 194.71 119.82Q191.44 115.7 186.74 112.71Q182.31 109.91 177.48 108.48Q172.46 107 167 107Q161.65 107 156.03 111.08Q150.25 115.28 146.31 122.3Q142.37 129.31 141.28 136.75Q139.75 147.28 143.93 158.65L144.11 159.14L143.82 159.56Q142.35 161.7 140.28 164.42Q137.03 168.72 135.7 174.7Q134.51 180.04 136.16 184.27Q137.17 186.85 139.23 189.02Q146.2 196.35 152.6 196.81Q156.22 197.07 161.64 194.53Q164.47 193.21 165.71 193.07Q166.7 192.97 167.52 193.3Q168.6 193.74 169.37 194.96L169.39 194.99L169.4 195.02Q170.62 197.25 172.32 199.04Q175.34 202.23 179.88 204Q182.5 205.02 185.18 205.2Q192.57 205.68 200.39 199.7L201.09 199.17L201.71 199.79Q203.46 201.53 205.73 204.4Q208.74 208.2 211.35 209.46Q215.45 211.46 225.55 212.5Z" fill="#EEF6E3" fill-opacity="1.000000" fill-rule="evenodd"/>
	<path id="Ellipse 322" d="M125.8 46C145.8 48 152.5 60.5 151.8 71.5C145.5 86.5 136.3 88 125.8 88C116.3 102.5 106.5 106 93.3 106C83 106 78.68 105 70.5 93.5C59.5 105.5 50.3 97.93 37.5 93.5C29.95 89 12.76 107 1.77 88C-6.29 62.5 15.73 66.75 15.73 59.5C17.21 39 28.8 31.5 43.79 26C48.79 2.5 58.64 0 68.8 0C76.92 0 88.8 5.5 93.3 20.5C109.3 17.5 125.8 32.8 125.8 46Z" fill="#88D5E6" fill-opacity="1.000000" fill-rule="nonzero"/>
	<path id="Ellipse 322" d="M93.3 20.5C88.8 5.5 76.92 0 68.8 0C58.64 0 48.79 2.5 43.79 26C28.8 31.5 17.21 39 15.73 59.5C15.73 61.91 13.3 63.05 10.35 64.43C4.42 67.21 -3.61 70.97 1.77 88C8.84 100.22 18.48 97.13 26.46 94.57C30.89 93.15 34.81 91.89 37.5 93.5C39.87 94.32 42.12 95.25 44.28 96.14C53.53 99.96 61.13 103.1 69.79 94.23C70.03 94 70.26 93.75 70.5 93.5C70.7 93.78 70.89 94.05 71.09 94.32C78.9 105.04 83.25 106 93.3 106C106.5 106 116.3 102.5 125.8 88C136.3 88 145.5 86.5 151.8 71.5C152.5 60.5 145.8 48 125.8 46C125.8 32.8 109.3 17.5 93.3 20.5ZM150.82 71.26Q151.1 66.12 149.36 61.8Q148.1 58.7 145.8 56.02Q145.57 55.75 145.32 55.47Q138.71 48.29 125.7 46.99L124.8 46.9L124.8 46Q124.8 44.47 124.57 42.98Q123.26 34.89 114.91 27.94Q107.53 21.8 99.7 21.14Q96.63 20.89 93.49 21.48L92.6 21.64L92.35 20.78Q90.03 13.06 84.99 8.09Q83.53 6.64 81.83 5.43Q76.9 1.91 71.6 1.19Q70.21 1 68.8 1Q59.84 1 55 4.96Q48.09 10.6 44.78 26.2L44.66 26.75L44.14 26.93Q31.43 31.6 25.42 37.82Q24.94 38.31 24.49 38.83Q17.67 46.62 16.73 59.53Q16.73 59.58 16.73 59.63Q16.6 62.6 10.78 65.33Q4.59 68.23 2.67 71.39Q-0.67 76.89 2.69 87.59Q6.15 93.53 11.08 95.22Q12.42 95.68 13.88 95.83Q17.96 96.25 26.16 93.61Q34.79 90.84 37.91 92.58Q40.31 93.42 44.67 95.22Q53.55 98.89 57.6 98.95Q58.43 98.97 59.25 98.88Q64.78 98.26 69.76 92.82L70.6 91.91L71.31 92.92Q76.99 100.89 81.55 103.16Q85.23 105 93.3 105Q103.69 105 110.48 101.54Q118.35 97.54 124.96 87.45L125.26 87L125.8 87Q135 87 139.92 84.48Q146.67 81.03 150.82 71.26Z" fill="#EEF6E3" fill-opacity="1.000000" fill-rule="evenodd"/>
	<path id="Ellipse 325" d="M443.8 121C463.8 123 470.5 135.5 469.8 146.5C463.5 161.5 454.3 163 443.8 163C434.3 177.5 424.5 181 411.3 181C401 181 396.68 180 388.5 168.5C377.5 180.5 368.3 172.93 355.5 168.5C347.95 164 330.76 182 319.77 163C311.71 137.5 333.73 141.75 333.73 134.5C335.21 114 346.8 106.5 361.79 101C366.79 77.5 376.64 75 386.8 75C394.93 75 406.8 80.5 411.3 95.5C427.3 92.5 443.8 107.8 443.8 121Z" fill="#88D5E6" fill-opacity="1.000000" fill-rule="nonzero"/>
	<path id="Ellipse 325" d="M411.3 95.5C406.8 80.5 394.93 75 386.8 75C376.64 75 366.79 77.5 361.79 101C346.8 106.5 335.21 114 333.73 134.5C333.73 136.91 331.3 138.05 328.35 139.43C322.42 142.21 314.39 145.97 319.77 163C326.84 175.22 336.48 172.13 344.46 169.57C348.89 168.15 352.81 166.89 355.5 168.5C357.87 169.32 360.12 170.25 362.28 171.14C371.53 174.96 379.13 178.1 387.79 169.23C388.03 169 388.26 168.75 388.5 168.5C388.7 168.78 388.89 169.05 389.09 169.32C396.9 180.04 401.25 181 411.3 181C424.5 181 434.3 177.5 443.8 163C454.3 163 463.5 161.5 469.8 146.5C470.5 135.5 463.8 123 443.8 121C443.8 107.8 427.3 92.5 411.3 95.5ZM468.82 146.27Q469.1 141.12 467.36 136.8Q466.1 133.7 463.8 131.02Q463.57 130.75 463.32 130.47Q456.71 123.29 443.7 121.99L442.8 121.9L442.8 121Q442.8 119.47 442.57 117.98Q441.26 109.89 432.91 102.94Q425.53 96.8 417.7 96.14Q414.63 95.89 411.49 96.48L410.6 96.64L410.35 95.78Q408.03 88.06 402.99 83.09Q401.53 81.64 399.83 80.43Q394.9 76.91 389.6 76.19Q388.21 76 386.8 76Q377.84 76 373 79.96Q366.09 85.6 362.78 101.2L362.66 101.75L362.14 101.93Q349.43 106.6 343.42 112.82Q342.94 113.31 342.49 113.83Q335.68 121.62 334.73 134.53Q334.73 134.58 334.73 134.63Q334.6 137.6 328.78 140.34Q322.59 143.23 320.68 146.39Q317.33 151.89 320.69 162.59Q324.15 168.53 329.08 170.22Q330.43 170.68 331.88 170.83Q335.96 171.25 344.16 168.61Q352.79 165.84 355.91 167.58Q358.31 168.42 362.67 170.22Q371.55 173.89 375.6 173.95Q376.43 173.97 377.25 173.88Q382.78 173.26 387.76 167.82L388.6 166.91L389.31 167.92Q394.99 175.89 399.55 178.16Q403.23 180 411.3 180Q421.69 180 428.48 176.54Q436.35 172.54 442.96 162.45L443.26 162L443.8 162Q453 162 457.92 159.48Q464.67 156.03 468.82 146.27Z" fill="#EEF6E3" fill-opacity="1.000000" fill-rule="evenodd"/>
</svg>
